<mxfile host="app.diagrams.net" modified="2020-12-26T16:37:09.359Z" agent="5.0 (Windows NT 10.0; WOW64) AppleWebKit/537.36 (KHTML, like Gecko) Chrome/86.0.4240.193 Safari/537.36" etag="0Ep0XCXcUsi0AJfs0vib" version="14.1.2" type="github">
  <diagram id="FDnq_j8Fsql7vfNSWEyB" name="第 1 页">
    <mxGraphModel dx="757" dy="681" grid="1" gridSize="10" guides="1" tooltips="1" connect="1" arrows="1" fold="1" page="1" pageScale="1" pageWidth="2336" pageHeight="1654" math="0" shadow="0">
      <root>
        <mxCell id="0" />
        <mxCell id="1" parent="0" />
        <mxCell id="eaWG_f5Tti42zYSRh_Fk-4" style="edgeStyle=orthogonalEdgeStyle;rounded=0;orthogonalLoop=1;jettySize=auto;html=1;entryX=0.5;entryY=0;entryDx=0;entryDy=0;fontFamily=Helvetica;fontSize=12;" edge="1" parent="1" source="eaWG_f5Tti42zYSRh_Fk-1" target="eaWG_f5Tti42zYSRh_Fk-3">
          <mxGeometry relative="1" as="geometry" />
        </mxCell>
        <mxCell id="eaWG_f5Tti42zYSRh_Fk-1" value="case&amp;nbsp;&lt;span lang=&quot;EN-US&quot; style=&quot;font-size: 12px&quot;&gt;ASSIGNOP,&amp;nbsp;&lt;/span&gt;&lt;span lang=&quot;EN-US&quot; style=&quot;font-size: 12px&quot;&gt;OR,&amp;nbsp;&lt;/span&gt;&lt;span lang=&quot;EN-US&quot; style=&quot;font-size: 12px&quot;&gt;AND,&amp;nbsp;&lt;/span&gt;&lt;span lang=&quot;EN-US&quot; style=&quot;font-size: 12px&quot;&gt;RELOP,&lt;br&gt;&amp;nbsp;&lt;/span&gt;&lt;span lang=&quot;EN-US&quot; style=&quot;font-size: 12px&quot;&gt;PLUS,&amp;nbsp;&lt;/span&gt;&lt;span lang=&quot;EN-US&quot; style=&quot;font-size: 12px&quot;&gt;MINUS,&amp;nbsp;&lt;/span&gt;&lt;span lang=&quot;EN-US&quot; style=&quot;font-size: 12px&quot;&gt;STAR,&amp;nbsp;&lt;/span&gt;&lt;span lang=&quot;EN-US&quot; style=&quot;font-size: 12px&quot;&gt;DIV&lt;/span&gt;" style="rounded=0;whiteSpace=wrap;html=1;fontFamily=Helvetica;fontSize=12;" vertex="1" parent="1">
          <mxGeometry x="270" y="440" width="210" height="40" as="geometry" />
        </mxCell>
        <mxCell id="eaWG_f5Tti42zYSRh_Fk-7" style="edgeStyle=orthogonalEdgeStyle;rounded=0;orthogonalLoop=1;jettySize=auto;html=1;fontFamily=Helvetica;fontSize=12;" edge="1" parent="1" source="eaWG_f5Tti42zYSRh_Fk-2" target="eaWG_f5Tti42zYSRh_Fk-6">
          <mxGeometry relative="1" as="geometry" />
        </mxCell>
        <mxCell id="eaWG_f5Tti42zYSRh_Fk-2" value="&lt;div&gt;type1=semantic_Analysis(T-&amp;gt;ptr[0],type,level,flag,command);&lt;/div&gt;&lt;div&gt;type2=semantic_Analysis(T-&amp;gt;ptr[1],type,level,flag,command);&lt;/div&gt;" style="rounded=0;whiteSpace=wrap;html=1;fontFamily=Helvetica;fontSize=12;" vertex="1" parent="1">
          <mxGeometry x="270" y="570" width="210" height="60" as="geometry" />
        </mxCell>
        <mxCell id="eaWG_f5Tti42zYSRh_Fk-5" style="edgeStyle=orthogonalEdgeStyle;rounded=0;orthogonalLoop=1;jettySize=auto;html=1;fontFamily=Helvetica;fontSize=12;" edge="1" parent="1" source="eaWG_f5Tti42zYSRh_Fk-3" target="eaWG_f5Tti42zYSRh_Fk-2">
          <mxGeometry relative="1" as="geometry" />
        </mxCell>
        <mxCell id="eaWG_f5Tti42zYSRh_Fk-3" value="获取左右两个操作数的类型" style="rounded=0;whiteSpace=wrap;html=1;fontFamily=Helvetica;fontSize=12;" vertex="1" parent="1">
          <mxGeometry x="290" y="510" width="170" height="30" as="geometry" />
        </mxCell>
        <mxCell id="eaWG_f5Tti42zYSRh_Fk-11" style="edgeStyle=orthogonalEdgeStyle;rounded=0;orthogonalLoop=1;jettySize=auto;html=1;fontFamily=Helvetica;fontSize=12;" edge="1" parent="1" source="eaWG_f5Tti42zYSRh_Fk-6" target="eaWG_f5Tti42zYSRh_Fk-9">
          <mxGeometry relative="1" as="geometry">
            <Array as="points">
              <mxPoint x="510" y="685" />
              <mxPoint x="510" y="465" />
            </Array>
          </mxGeometry>
        </mxCell>
        <mxCell id="eaWG_f5Tti42zYSRh_Fk-26" style="edgeStyle=orthogonalEdgeStyle;rounded=0;orthogonalLoop=1;jettySize=auto;html=1;fontFamily=Helvetica;fontSize=12;" edge="1" parent="1" source="eaWG_f5Tti42zYSRh_Fk-6" target="eaWG_f5Tti42zYSRh_Fk-8">
          <mxGeometry relative="1" as="geometry" />
        </mxCell>
        <mxCell id="eaWG_f5Tti42zYSRh_Fk-6" value="type1 == type2 ?" style="rhombus;whiteSpace=wrap;html=1;fontFamily=Helvetica;fontSize=12;" vertex="1" parent="1">
          <mxGeometry x="300" y="660" width="150" height="50" as="geometry" />
        </mxCell>
        <mxCell id="eaWG_f5Tti42zYSRh_Fk-8" value="return type1" style="whiteSpace=wrap;html=1;fontFamily=Helvetica;fontSize=12;" vertex="1" parent="1">
          <mxGeometry x="330" y="740" width="90" height="40" as="geometry" />
        </mxCell>
        <mxCell id="eaWG_f5Tti42zYSRh_Fk-12" style="edgeStyle=orthogonalEdgeStyle;rounded=0;orthogonalLoop=1;jettySize=auto;html=1;fontFamily=Helvetica;fontSize=12;" edge="1" parent="1" source="eaWG_f5Tti42zYSRh_Fk-9" target="eaWG_f5Tti42zYSRh_Fk-10">
          <mxGeometry relative="1" as="geometry" />
        </mxCell>
        <mxCell id="eaWG_f5Tti42zYSRh_Fk-15" style="edgeStyle=orthogonalEdgeStyle;rounded=0;orthogonalLoop=1;jettySize=auto;html=1;fontFamily=Helvetica;fontSize=12;" edge="1" parent="1" source="eaWG_f5Tti42zYSRh_Fk-9" target="eaWG_f5Tti42zYSRh_Fk-13">
          <mxGeometry relative="1" as="geometry" />
        </mxCell>
        <mxCell id="eaWG_f5Tti42zYSRh_Fk-9" value="T-&amp;gt;kind == ASSIGNOP ?" style="rhombus;whiteSpace=wrap;html=1;fontFamily=Helvetica;fontSize=12;" vertex="1" parent="1">
          <mxGeometry x="530" y="440" width="190" height="50" as="geometry" />
        </mxCell>
        <mxCell id="eaWG_f5Tti42zYSRh_Fk-27" style="edgeStyle=orthogonalEdgeStyle;rounded=0;orthogonalLoop=1;jettySize=auto;html=1;fontFamily=Helvetica;fontSize=12;" edge="1" parent="1" source="eaWG_f5Tti42zYSRh_Fk-10" target="eaWG_f5Tti42zYSRh_Fk-25">
          <mxGeometry relative="1" as="geometry" />
        </mxCell>
        <mxCell id="eaWG_f5Tti42zYSRh_Fk-10" value="操作符两边的操作数类型不匹配" style="whiteSpace=wrap;html=1;fontFamily=Helvetica;fontSize=12;" vertex="1" parent="1">
          <mxGeometry x="570" y="510" width="110" height="50" as="geometry" />
        </mxCell>
        <mxCell id="eaWG_f5Tti42zYSRh_Fk-17" style="edgeStyle=orthogonalEdgeStyle;rounded=0;orthogonalLoop=1;jettySize=auto;html=1;entryX=0.5;entryY=0;entryDx=0;entryDy=0;fontFamily=Helvetica;fontSize=12;" edge="1" parent="1" source="eaWG_f5Tti42zYSRh_Fk-13" target="eaWG_f5Tti42zYSRh_Fk-16">
          <mxGeometry relative="1" as="geometry" />
        </mxCell>
        <mxCell id="eaWG_f5Tti42zYSRh_Fk-13" value="type1 != 0 &amp;amp;&amp;amp; type2 != 0 ?" style="rhombus;whiteSpace=wrap;html=1;fontFamily=Helvetica;fontSize=12;" vertex="1" parent="1">
          <mxGeometry x="725" y="510" width="210" height="50" as="geometry" />
        </mxCell>
        <mxCell id="eaWG_f5Tti42zYSRh_Fk-14" value="未出现变量未定义" style="text;html=1;align=center;verticalAlign=middle;resizable=0;points=[];autosize=1;fontSize=12;fontFamily=Helvetica;" vertex="1" parent="1">
          <mxGeometry x="850" y="490" width="110" height="20" as="geometry" />
        </mxCell>
        <mxCell id="eaWG_f5Tti42zYSRh_Fk-19" style="edgeStyle=orthogonalEdgeStyle;rounded=0;orthogonalLoop=1;jettySize=auto;html=1;fontFamily=Helvetica;fontSize=12;" edge="1" parent="1" source="eaWG_f5Tti42zYSRh_Fk-16" target="eaWG_f5Tti42zYSRh_Fk-18">
          <mxGeometry relative="1" as="geometry" />
        </mxCell>
        <mxCell id="eaWG_f5Tti42zYSRh_Fk-22" style="edgeStyle=orthogonalEdgeStyle;rounded=0;orthogonalLoop=1;jettySize=auto;html=1;fontFamily=Helvetica;fontSize=12;" edge="1" parent="1" source="eaWG_f5Tti42zYSRh_Fk-16" target="eaWG_f5Tti42zYSRh_Fk-21">
          <mxGeometry relative="1" as="geometry" />
        </mxCell>
        <mxCell id="eaWG_f5Tti42zYSRh_Fk-16" value="(type1 != INT &amp;amp;&amp;amp; &lt;br&gt;type1 != FLOAT) ||&lt;br&gt;&amp;nbsp;(T-&amp;gt;ptr[0])-&amp;gt;kind != ID ?" style="rhombus;whiteSpace=wrap;html=1;fontFamily=Helvetica;fontSize=12;" vertex="1" parent="1">
          <mxGeometry x="725" y="590" width="210" height="100" as="geometry" />
        </mxCell>
        <mxCell id="eaWG_f5Tti42zYSRh_Fk-28" style="edgeStyle=orthogonalEdgeStyle;rounded=0;orthogonalLoop=1;jettySize=auto;html=1;fontFamily=Helvetica;fontSize=12;" edge="1" parent="1" source="eaWG_f5Tti42zYSRh_Fk-18" target="eaWG_f5Tti42zYSRh_Fk-25">
          <mxGeometry relative="1" as="geometry">
            <Array as="points">
              <mxPoint x="830" y="765" />
            </Array>
          </mxGeometry>
        </mxCell>
        <mxCell id="eaWG_f5Tti42zYSRh_Fk-18" value="赋值号左边出现只有一个右值的表达式" style="whiteSpace=wrap;html=1;fontFamily=Helvetica;fontSize=12;" vertex="1" parent="1">
          <mxGeometry x="770" y="710" width="120" height="40" as="geometry" />
        </mxCell>
        <mxCell id="eaWG_f5Tti42zYSRh_Fk-20" value="Y" style="text;html=1;align=center;verticalAlign=middle;resizable=0;points=[];autosize=1;fontSize=12;fontFamily=Helvetica;" vertex="1" parent="1">
          <mxGeometry x="800" y="690" width="20" height="20" as="geometry" />
        </mxCell>
        <mxCell id="eaWG_f5Tti42zYSRh_Fk-29" style="edgeStyle=orthogonalEdgeStyle;rounded=0;orthogonalLoop=1;jettySize=auto;html=1;entryX=1;entryY=0.5;entryDx=0;entryDy=0;fontFamily=Helvetica;fontSize=12;" edge="1" parent="1" source="eaWG_f5Tti42zYSRh_Fk-21" target="eaWG_f5Tti42zYSRh_Fk-25">
          <mxGeometry relative="1" as="geometry">
            <Array as="points">
              <mxPoint x="1000" y="765" />
            </Array>
          </mxGeometry>
        </mxCell>
        <mxCell id="eaWG_f5Tti42zYSRh_Fk-21" value="赋值号两边表达式类型不匹配" style="whiteSpace=wrap;html=1;fontFamily=Helvetica;fontSize=12;" vertex="1" parent="1">
          <mxGeometry x="950" y="710" width="100" height="40" as="geometry" />
        </mxCell>
        <mxCell id="eaWG_f5Tti42zYSRh_Fk-23" value="N" style="text;html=1;align=center;verticalAlign=middle;resizable=0;points=[];autosize=1;fontSize=12;fontFamily=Helvetica;" vertex="1" parent="1">
          <mxGeometry x="940" y="620" width="20" height="20" as="geometry" />
        </mxCell>
        <mxCell id="eaWG_f5Tti42zYSRh_Fk-24" value="Y" style="text;html=1;align=center;verticalAlign=middle;resizable=0;points=[];autosize=1;fontSize=12;fontFamily=Helvetica;" vertex="1" parent="1">
          <mxGeometry x="790" y="570" width="20" height="20" as="geometry" />
        </mxCell>
        <mxCell id="eaWG_f5Tti42zYSRh_Fk-25" value="return 0" style="whiteSpace=wrap;html=1;fontFamily=Helvetica;fontSize=12;" vertex="1" parent="1">
          <mxGeometry x="590" y="750" width="70" height="30" as="geometry" />
        </mxCell>
      </root>
    </mxGraphModel>
  </diagram>
</mxfile>
